<svg xmlns="http://www.w3.org/2000/svg" version="1.1" xmlns:xlink="http://www.w3.org/1999/xlink" xmlns:svgjs="http://svgjs.dev/svgjs" width="1000" height="131" viewBox="0 0 1000 131"><g transform="matrix(1,0,0,1,-0.6060606060606233,0.13264086051943025)"><svg viewBox="0 0 396 52" data-background-color="#ffffff" preserveAspectRatio="xMidYMid meet" height="131" width="1000" xmlns="http://www.w3.org/2000/svg" xmlns:xlink="http://www.w3.org/1999/xlink"><g id="tight-bounds" transform="matrix(1,0,0,1,0.2400000000000091,-0.0526513339466419)"><svg viewBox="0 0 395.52 52.10530266789328" height="52.10530266789328" width="395.52"><g><svg viewBox="0 0 395.52 52.10530266789328" height="52.10530266789328" width="395.52"><g><svg viewBox="0 0 395.52 52.10530266789328" height="52.10530266789328" width="395.52"><g id="textblocktransform"><svg viewBox="0 0 395.52 52.10530266789328" height="52.10530266789328" width="395.52" id="textblock"><g><svg viewBox="0 0 395.52 52.10530266789328" height="52.10530266789328" width="395.52"><g transform="matrix(1,0,0,1,0,0)"><svg width="395.52" viewBox="1.399999976158142 -35.150001525878906 269.58001708984375 35.80000305175781" height="52.10530266789328" data-palette-color="#000000"><g class="undefined-text-0" data-fill-palette-color="primary" id="text-0"><path d="M40.4-34.5L46.8-34.5 40.6-1.75Q40.4-1 39.78-0.5 39.15 0 38.25 0L38.25 0 32.05 0Q31.2 0 30.55-0.5 29.9-1 29.8-1.8L29.8-1.8 25.25-25.75Q25.05-26.85 24.9-27.9 24.75-28.95 24.6-30L24.6-30 23.6-30Q23.45-28.95 23.28-27.88 23.1-26.8 22.95-25.75L22.95-25.75 18.45-1.8Q18.3-1 17.65-0.5 17 0 16.15 0L16.15 0 9.9 0Q9 0 8.38-0.5 7.75-1 7.6-1.75L7.6-1.75 1.4-34.5 7.8-34.5 12.15-9.25Q12.3-8.25 12.43-7.05 12.55-5.85 12.7-4.6L12.7-4.6 13.75-4.6Q13.95-5.75 14.15-6.98 14.35-8.2 14.55-9.3L14.55-9.3 19-32.55Q19.1-33.45 19.75-33.98 20.4-34.5 21.25-34.5L21.25-34.5 26.9-34.5Q27.8-34.5 28.4-33.98 29-33.45 29.2-32.55L29.2-32.55 33.65-9.25Q33.9-8.1 34.08-6.9 34.25-5.7 34.4-4.6L34.4-4.6 35.5-4.6Q35.6-5.75 35.75-6.95 35.9-8.15 36.05-9.2L36.05-9.2 40.4-34.5ZM52.05-34.5L58.3-34.5 58.3 0 52.05 0 52.05-34.5ZM57.9-20.85L72.7-20.85 72.7-15.95 57.9-15.95 57.9-20.85ZM72.15-34.5L78.4-34.5 78.4 0 72.15 0 72.15-34.5ZM86.09-34.5L92.34-34.5 92.34 0 86.09 0 86.09-34.5ZM107.89-34.5L114.14-34.5 114.14 0 107.89 0 107.89-34.5ZM97.19-34.5L124.84-34.5 124.84-29.4 97.19-29.4 97.19-34.5ZM136.49-34.6L136.49-34.6Q139.09-34.6 141.82-34.6 144.54-34.6 147.19-34.5 149.84-34.4 152.19-34.2L152.19-34.2 151.89-29.55 138.39-29.55Q136.99-29.55 136.32-28.85 135.64-28.15 135.64-26.65L135.64-26.65 135.64-7.85Q135.64-6.35 136.32-5.65 136.99-4.95 138.39-4.95L138.39-4.95 151.89-4.95 152.19-0.3Q149.84-0.1 147.19-0.03 144.54 0.05 141.82 0.08 139.09 0.1 136.49 0.1L136.49 0.1Q133.29 0.1 131.37-1.68 129.44-3.45 129.39-6.45L129.39-6.45 129.39-28.05Q129.44-31.05 131.37-32.83 133.29-34.6 136.49-34.6ZM130.29-15.75L130.29-20.35 149.99-20.35 149.99-15.75 130.29-15.75Z" fill="#000000" data-fill-palette-color="primary"></path><path d="M166.64-35.15L166.64-35.15Q169.19-35.1 172.02-34.85 174.84-34.6 177.54-33.9L177.54-33.9 177.14-29.65Q174.99-29.7 172.17-29.78 169.34-29.85 166.74-29.85L166.74-29.85Q165.14-29.85 164.02-29.75 162.89-29.65 162.19-29.25 161.49-28.85 161.16-28.03 160.84-27.2 160.84-25.75L160.84-25.75Q160.84-23.5 161.77-22.55 162.69-21.6 164.79-21.05L164.79-21.05 171.59-19.05Q175.69-17.8 177.24-15.43 178.79-13.05 178.79-9.1L178.79-9.1Q178.79-6.15 178.09-4.25 177.39-2.35 175.94-1.3 174.49-0.25 172.14 0.2 169.79 0.65 166.49 0.65L166.49 0.65Q164.79 0.65 161.82 0.45 158.84 0.25 155.04-0.55L155.04-0.55 155.44-5.05Q158.39-4.95 160.39-4.88 162.39-4.8 163.84-4.8 165.29-4.8 166.54-4.8L166.54-4.8Q168.84-4.8 170.14-5.1 171.44-5.4 171.97-6.35 172.49-7.3 172.49-9.1L172.49-9.1Q172.49-10.65 172.12-11.53 171.74-12.4 170.89-12.9 170.04-13.4 168.69-13.75L168.69-13.75 161.64-15.9Q157.74-17.1 156.17-19.45 154.59-21.8 154.59-25.75L154.59-25.75Q154.59-28.7 155.29-30.58 155.99-32.45 157.44-33.43 158.89-34.4 161.16-34.77 163.44-35.15 166.64-35.15ZM197.89-35.15L197.89-35.15Q201.89-35.15 204.64-34.27 207.39-33.4 209.06-31.35 210.74-29.3 211.49-25.85 212.24-22.4 212.24-17.25L212.24-17.25Q212.24-12.15 211.49-8.68 210.74-5.2 209.06-3.15 207.39-1.1 204.64-0.23 201.89 0.65 197.89 0.65L197.89 0.65Q193.99 0.65 191.24-0.23 188.49-1.1 186.79-3.15 185.09-5.2 184.34-8.68 183.59-12.15 183.59-17.25L183.59-17.25Q183.59-22.4 184.34-25.85 185.09-29.3 186.79-31.35 188.49-33.4 191.24-34.27 193.99-35.15 197.89-35.15ZM197.89-30.05L197.89-30.05Q194.94-30.05 193.26-28.88 191.59-27.7 190.89-24.93 190.19-22.15 190.19-17.25L190.19-17.25Q190.19-12.35 190.89-9.58 191.59-6.8 193.26-5.63 194.94-4.45 197.89-4.45L197.89-4.45Q200.89-4.45 202.56-5.63 204.24-6.8 204.94-9.58 205.64-12.35 205.64-17.25L205.64-17.25Q205.64-22.15 204.94-24.93 204.24-27.7 202.56-28.88 200.89-30.05 197.89-30.05ZM225.74-34.6L225.74-34.6Q228.29-34.6 230.91-34.58 233.54-34.55 236.11-34.48 238.69-34.4 240.89-34.15L240.89-34.15 240.59-29.55 227.89-29.55Q226.39-29.55 225.64-28.85 224.89-28.15 224.89-26.65L224.89-26.65 224.89 0 218.64 0 218.64-27.9Q218.64-31.05 220.59-32.83 222.54-34.6 225.74-34.6ZM219.49-15.2L219.49-19.8 238.69-19.8 238.69-15.2 219.49-15.2ZM254.03-34.5L260.28-34.5 260.28 0 254.03 0 254.03-34.5ZM243.33-34.5L270.98-34.5 270.98-29.4 243.33-29.4 243.33-34.5Z" fill="#61777f" data-fill-palette-color="secondary"></path></g></svg></g></svg></g></svg></g></svg></g></svg></g><defs></defs></svg><rect width="395.52" height="52.10530266789328" fill="none" stroke="none" visibility="hidden"></rect></g></svg></g></svg>